<svg width="17" height="16" viewBox="0 0 17 16" fill="none" xmlns="http://www.w3.org/2000/svg">
<path d="M15.0823 5.37489L9.08227 1.37489C8.95902 1.29266 8.81418 1.24878 8.66602 1.24878C8.51786 1.24878 8.37301 1.29266 8.24977 1.37489L2.24977 5.37489C2.14694 5.4435 2.06266 5.53645 2.00443 5.64549C1.94621 5.75454 1.91583 5.87628 1.91602 5.99989V12.4999C1.91602 12.8314 2.04771 13.1494 2.28213 13.3838C2.51655 13.6182 2.8345 13.7499 3.16602 13.7499H14.166C14.4975 13.7499 14.8155 13.6182 15.0499 13.3838C15.2843 13.1494 15.416 12.8314 15.416 12.4999V5.99989C15.4162 5.87628 15.3858 5.75454 15.3276 5.64549C15.2694 5.53645 15.1851 5.4435 15.0823 5.37489ZM8.66602 2.90114L13.3448 6.02052L9.51664 8.74989H7.81539L3.98727 6.02052L8.66602 2.90114ZM3.41602 12.2499V7.45552L7.13977 10.1105C7.26744 10.2016 7.42045 10.2503 7.57727 10.2499H9.75852C9.91534 10.2503 10.0683 10.2016 10.196 10.1105L13.916 7.45552V12.2499H3.41602Z" fill="#1FFFA5"/>
</svg>
