<svg width="160" height="36" viewBox="0 0 160 36" fill="none" xmlns="http://www.w3.org/2000/svg">
<g clip-path="url(#clip0_156_8417)">
<path d="M25.8147 4.55038C25.3087 3.85299 24.7172 3.22114 24.0538 2.66952C23.3917 2.11919 22.67 1.644 21.902 1.25277C21.1307 0.861443 20.3168 0.559116 19.4764 0.351674C18.6286 0.140522 17.7579 0.0339439 16.8839 0.0343428C15.8544 0.0288011 14.829 0.164504 13.8368 0.437617C12.8976 0.697359 11.9977 1.08137 11.1612 1.57935C10.3395 2.06988 9.58743 2.66754 8.92505 3.35641C7.86429 4.4545 7.04123 5.75728 6.50674 7.18423H11.7143C11.7189 7.17564 11.7249 7.16771 11.7302 7.15977C12.1186 6.5959 12.589 6.09258 13.1262 5.66632C13.6608 5.24318 14.2576 4.90427 14.8957 4.66144C15.529 4.41766 16.2022 4.29259 16.8813 4.29254C17.6265 4.28649 18.3676 4.4024 19.0749 4.63566C19.731 4.85255 20.3443 5.18092 20.8876 5.60617C21.419 6.02646 21.8768 6.53131 22.2424 7.10027C22.2603 7.12738 22.2783 7.15581 22.2956 7.18423C22.6484 7.75132 22.9129 8.3683 23.0799 9.01418H5.98625C5.84098 9.75468 5.76841 10.5075 5.76955 11.2619C5.76854 11.882 5.81856 12.5011 5.91911 13.113C6.0045 13.6302 6.12894 14.1403 6.29136 14.6389C6.40663 14.9932 6.5411 15.341 6.69419 15.6808C7.89578 18.3883 10.1 20.5313 12.849 21.6645C14.2479 22.2495 15.7513 22.5473 17.2688 22.5398C18.7073 22.5398 20.0279 22.2936 21.2306 21.8013C22.4396 21.3058 23.5615 20.622 24.5543 19.7757C24.9917 19.4548 25.2104 19.1342 25.2104 18.8138C25.2089 18.6823 25.1763 18.553 25.1154 18.4363C25.0303 18.2777 24.9292 18.1282 24.8136 17.99C24.6746 17.8175 24.4972 17.6066 24.2818 17.3547C24.0664 17.1028 23.7979 16.7882 23.4841 16.41C23.38 16.2699 23.2475 16.153 23.0952 16.0669C22.9873 16.0049 22.8661 15.9696 22.7416 15.9637C22.6009 15.964 22.4629 16.0026 22.3427 16.0755C22.1999 16.1618 22.0663 16.2624 21.9439 16.3756C21.9416 16.3753 21.9392 16.3755 21.9369 16.3763C21.9347 16.377 21.9326 16.3783 21.9309 16.3799C21.9293 16.3816 21.928 16.3836 21.9273 16.3859C21.9265 16.3881 21.9263 16.3905 21.9266 16.3928C21.6388 16.6503 21.3297 16.8831 21.0026 17.089C20.638 17.3199 20.2539 17.5189 19.8546 17.684C19.4224 17.8617 18.9747 17.9997 18.5172 18.0965C18.026 18.2008 17.5251 18.2524 17.0229 18.2505C16.3303 18.2485 15.6426 18.1356 14.9861 17.916C14.3064 17.6931 13.67 17.3564 13.1042 16.9204C12.5194 16.4689 12.0148 15.9232 11.6112 15.3059C11.4711 15.0947 11.3462 14.8738 11.2377 14.6448C11.0107 14.1594 10.8489 13.6464 10.7564 13.119H26.0706C26.143 13.119 26.2135 13.119 26.2806 13.119V5.26172C26.1391 5.02042 25.9815 4.78309 25.8147 4.55038Z" fill="#002013"/>
<path d="M23.0863 13.1177H0.61355C0.450826 13.1177 0.294766 13.0534 0.179703 12.9389C0.0646395 12.8245 0 12.6693 0 12.5075V9.62437C0 9.46253 0.0646395 9.30733 0.179703 9.19289C0.294766 9.07845 0.450826 9.01416 0.61355 9.01416H23.0863V13.1177Z" fill="#002013"/>
<path d="M46.0734 14.6793C45.4565 12.4436 45.4565 10.0839 46.0734 7.8481C46.2612 7.17818 46.5019 6.52407 46.7933 5.89188C46.784 5.86213 46.7753 5.83238 46.7654 5.8033C46.4184 4.70932 45.858 3.69411 45.1162 2.81575C44.3829 1.96214 43.4699 1.2792 42.4419 0.815231C41.3832 0.330418 40.1745 0.0880118 38.8158 0.0880118C38.0416 0.078919 37.2696 0.171614 36.5198 0.363693C35.888 0.527937 35.2792 0.770015 34.7077 1.0843C34.207 1.35987 33.7454 1.70046 33.335 2.09712C32.9722 2.44765 32.6453 2.83321 32.3592 3.24811L32.1691 1.42742C32.1127 1.16664 32.0007 0.920922 31.8407 0.706808C31.6799 0.489304 31.4332 0.376254 31.0989 0.376254H29.3553C29.1937 0.376254 29.0229 0.380221 28.8368 0.384849C28.6506 0.389477 28.515 0.440385 28.4226 0.532279C28.2963 0.577234 28.1634 0.691605 28.0238 0.874732C27.8842 1.05786 27.8164 1.22975 27.8164 1.38973V21.1569C27.8164 21.4888 27.905 21.7435 28.0823 21.9211C28.2596 22.0987 28.5388 22.1869 28.9199 22.1856H31.7683C31.9579 22.1933 32.1448 22.1387 32.3001 22.0302C32.4418 21.9237 32.5525 21.7816 32.6205 21.6183C32.6986 21.432 32.7479 21.2349 32.7667 21.0339C32.79 20.8174 32.8018 20.5998 32.8019 20.3821V9.25428C32.8023 8.59742 32.9685 7.95116 33.2852 7.37475C33.584 6.83366 33.9822 6.3531 34.4591 5.95799C34.9254 5.57238 35.4537 5.26774 36.0219 5.0569C36.5477 4.8531 37.1062 4.74537 37.6705 4.73891C38.4411 4.73891 39.1202 4.8762 39.7079 5.15078C40.2724 5.40929 40.7754 5.78402 41.1836 6.25021C41.5805 6.70758 41.8881 7.23472 42.0903 7.80447C42.2962 8.37455 42.4012 8.97579 42.4007 9.58153V21.0187C42.4007 21.4531 42.4778 21.7565 42.634 21.9284C42.7903 22.1003 43.0994 22.1862 43.5574 22.1862H46.1817C46.5493 22.1862 46.8325 22.0831 47.0273 21.8762C47.222 21.6692 47.3211 21.3618 47.3211 20.9506V17.6695C46.7822 16.7281 46.3631 15.7236 46.0734 14.6793Z" fill="#002013"/>
<path d="M69.823 0.849659C69.7348 0.71712 69.6124 0.610509 69.4687 0.540919C69.3106 0.463442 69.1423 0.408474 68.9688 0.377627C68.7865 0.343249 68.6013 0.325767 68.4158 0.325401H66.6874C66.5422 0.322451 66.3971 0.337102 66.2554 0.369032C66.1463 0.394166 66.0473 0.451013 65.9709 0.532328C65.8883 0.62554 65.8239 0.733127 65.7807 0.849659C65.7296 0.981881 65.6744 1.15046 65.6166 1.35607L65.3759 3.1913C64.9686 2.71836 64.5177 2.28433 64.0292 1.89487C63.5307 1.49835 62.9891 1.15862 62.4145 0.882053C61.8167 0.596098 61.1886 0.377458 60.542 0.230201C59.8511 0.0726556 59.1442 -0.00520802 58.4354 -0.00184892C57.4229 -0.00516005 56.4147 0.130544 55.4394 0.401426C54.4946 0.665116 53.5872 1.04722 52.7393 1.53853C51.061 2.50794 49.6658 3.89559 48.691 5.56469C48.6 5.71939 48.5136 5.87607 48.4298 6.03539C48.0607 6.74489 47.7662 7.49039 47.551 8.26003C47.4602 8.58309 47.3848 8.91056 47.325 9.24243C47.0844 10.5849 47.0844 11.9592 47.325 13.3016C47.3839 13.6287 47.4586 13.9515 47.549 14.2702C47.8117 15.2136 48.1948 16.1196 48.689 16.9662C48.744 17.0609 48.8007 17.1546 48.8592 17.2471C49.3115 17.9722 49.8449 18.644 50.4493 19.2496C51.1309 19.9337 51.9002 20.5254 52.7373 21.0095C53.5856 21.5001 54.4934 21.8809 55.4388 22.1426C56.414 22.4135 57.4222 22.5492 58.4347 22.5459C59.0911 22.5471 59.7455 22.4753 60.3857 22.3317C61.0033 22.1937 61.6048 21.9923 62.1805 21.7308C62.7352 21.4785 63.2641 21.1736 63.7599 20.8204C64.2362 20.4827 64.684 20.1068 65.0987 19.6965L65.2018 21.1563C65.2567 21.4214 65.3653 21.6726 65.5208 21.8947C65.6653 22.0891 65.9214 22.1865 66.2893 22.1869H68.4477C68.6356 22.1875 68.8232 22.1729 69.0087 22.1433C69.1746 22.1192 69.3351 22.0671 69.4833 21.9893C69.6318 21.9123 69.7547 21.7943 69.8373 21.6494C69.9198 21.5045 69.9585 21.339 69.9486 21.1728V1.3402C69.9559 1.16798 69.9123 0.99742 69.823 0.849659ZM64.549 13.8649C64.2159 14.6648 63.7355 15.3958 63.1324 16.0201C62.5299 16.6412 61.8117 17.1399 61.0179 17.4884C60.1945 17.8514 59.3028 18.0358 58.4022 18.0292C57.5238 18.0382 56.6543 17.8536 55.8562 17.4884C55.0899 17.1354 54.4004 16.6366 53.8268 16.0201C53.2455 15.3924 52.7885 14.6612 52.48 13.8649C51.8357 12.1959 51.8357 10.3488 52.48 8.67983C52.7887 7.88359 53.2456 7.1524 53.8268 6.52462C54.4017 5.90733 55.0907 5.4059 55.8562 5.04769C56.6527 4.677 57.5228 4.48924 58.4022 4.49832C59.3037 4.49175 60.196 4.67915 61.0179 5.04769C61.8109 5.40147 62.5287 5.90278 63.1324 6.52462C63.7354 7.14909 64.2158 7.88001 64.549 8.67983C65.2394 10.34 65.2394 12.2047 64.549 13.8649Z" fill="#002013"/>
<path d="M102.705 4.55038C102.199 3.85268 101.607 3.22079 100.944 2.66952C100.282 2.11917 99.5614 1.64397 98.794 1.25276C98.0226 0.861441 97.2088 0.559113 96.3684 0.351672C95.5206 0.140519 94.6499 0.0339414 93.7759 0.0343404C92.7464 0.0288408 91.721 0.164542 90.7287 0.437615C89.7896 0.697507 88.8897 1.08151 88.0532 1.57935C87.2316 2.07005 86.4795 2.66769 85.817 3.35641C85.1569 4.04198 84.5872 4.80843 84.1219 5.63724C83.8439 6.13333 83.6039 6.64958 83.404 7.18158H88.6116C88.6162 7.17299 88.6222 7.16506 88.6275 7.15712C89.016 6.59341 89.4865 6.09012 90.0235 5.66368C90.5582 5.24068 91.1549 4.90177 91.793 4.65879C92.4263 4.41502 93.0995 4.28994 93.7786 4.2899C94.5237 4.28396 95.2648 4.39988 95.9722 4.63302C96.6282 4.84972 97.2413 5.1781 97.7843 5.60352C98.3156 6.02381 98.7734 6.52866 99.139 7.09762C99.1569 7.12473 99.1755 7.15316 99.1922 7.18158C99.5453 7.74853 99.8098 8.36556 99.9766 9.01153H82.8762C82.7312 9.75206 82.6588 10.5049 82.6602 11.2593C82.6592 11.8794 82.7092 12.4985 82.8097 13.1104C82.8949 13.6276 83.0191 14.1376 83.1813 14.6362C83.2966 14.9905 83.4311 15.3383 83.5842 15.6782C84.7857 18.3856 86.99 20.5286 89.7389 21.6618C91.1379 22.2468 92.6412 22.5446 94.1588 22.5372C95.5982 22.5372 96.9188 22.291 98.1206 21.7987C99.3295 21.3031 100.451 20.6193 101.444 19.7731C101.882 19.4522 102.1 19.1316 102.1 18.8111C102.099 18.6796 102.067 18.5502 102.005 18.4337C101.92 18.2751 101.819 18.1256 101.704 17.9874C101.565 17.8149 101.387 17.604 101.172 17.3521C100.956 17.1002 100.688 16.7855 100.374 16.4074C100.27 16.2669 100.138 16.15 99.9852 16.0642C99.8773 16.0023 99.756 15.9669 99.6316 15.9611C99.4908 15.9613 99.3529 16 99.2327 16.0728C99.09 16.1594 98.9564 16.2599 98.8339 16.373C98.8315 16.3726 98.8291 16.3729 98.8269 16.3736C98.8246 16.3744 98.8226 16.3756 98.8209 16.3773C98.8192 16.3789 98.818 16.381 98.8172 16.3832C98.8165 16.3855 98.8163 16.3878 98.8166 16.3902C98.5289 16.6478 98.2198 16.8807 97.8926 17.0863C97.5279 17.3172 97.1438 17.5163 96.7446 17.6813C96.3124 17.8591 95.8647 17.9972 95.4072 18.0938C94.9162 18.1981 94.4155 18.2498 93.9135 18.2479C93.2207 18.2459 92.5327 18.1329 91.8761 17.9134C91.1964 17.6903 90.56 17.3536 89.9942 16.9177C89.4094 16.4663 88.9047 15.9206 88.5012 15.3033C88.361 15.092 88.2362 14.8711 88.1276 14.6422C87.9009 14.1567 87.7393 13.6437 87.647 13.1164H102.961C103.031 13.1164 103.099 13.1164 103.164 13.1164V5.24916C103.023 5.01249 102.869 4.77956 102.705 4.55038ZM104.699 10.9056V11.7194C104.703 11.6051 104.705 11.4821 104.705 11.3512C104.707 11.2 104.705 11.0515 104.701 10.9056H104.699Z" fill="#002013"/>
<path d="M136.121 14.6791C135.504 12.4431 135.504 10.0832 136.121 7.84722C136.289 7.2487 136.499 6.66262 136.749 6.09329C136.723 5.99611 136.695 5.89959 136.666 5.80307C136.342 4.71179 135.812 3.69198 135.104 2.79833C134.409 1.93699 133.526 1.24428 132.522 0.772691C131.492 0.280385 130.298 0.0342337 128.939 0.0342337C128.167 0.0316984 127.396 0.118442 126.643 0.292725C125.939 0.453312 125.258 0.699093 124.614 1.02457C124.018 1.32679 123.469 1.71264 122.983 2.17027C122.527 2.59743 122.148 3.09893 121.861 3.65314C121.534 3.10342 121.146 2.59184 120.704 2.12796C120.282 1.68964 119.8 1.31303 119.272 1.00937C118.715 0.693942 118.115 0.460982 117.49 0.317848C116.77 0.15594 116.034 0.0778475 115.296 0.0851403C114.444 0.0851403 113.699 0.168438 113.061 0.335037C112.475 0.480013 111.912 0.702361 111.386 0.996146C110.931 1.25493 110.515 1.57706 110.151 1.95277C109.815 2.30311 109.509 2.68057 109.236 3.08128L109.047 1.42851C108.991 1.16556 108.879 0.91758 108.718 0.701294C108.557 0.482467 108.309 0.37074 107.976 0.37074H106.236C105.799 0.37074 105.433 0.442139 105.14 0.584938C104.847 0.727738 104.7 0.993941 104.699 1.38355V21.1507C104.699 21.4826 104.788 21.7373 104.965 21.9149C105.144 22.0928 105.422 22.1794 105.803 22.1794H108.652C108.788 22.1836 108.924 22.1607 109.051 22.112C109.179 22.0633 109.295 21.9898 109.394 21.8958C109.491 21.8016 109.567 21.6882 109.618 21.563C109.668 21.4378 109.692 21.3034 109.687 21.1686V9.18133C109.687 8.53365 109.834 7.8943 110.119 7.31171C110.379 6.78473 110.741 6.31319 111.182 5.92339C111.607 5.55088 112.095 5.25751 112.624 5.05733C113.131 4.86143 113.669 4.7597 114.213 4.75719C114.972 4.75719 115.628 4.89449 116.181 5.16907C116.708 5.42355 117.171 5.79274 117.536 6.24932C117.89 6.70213 118.154 7.21829 118.313 7.76986C118.48 8.3354 118.564 8.92183 118.564 9.51122V21.0205C118.564 21.4555 118.639 21.7587 118.788 21.9301C118.937 22.1014 119.242 22.188 119.703 22.188H122.343C123.09 22.188 123.464 21.7763 123.464 20.953V9.50792C123.456 8.83807 123.57 8.17227 123.801 7.5431C124.007 6.98478 124.321 6.47202 124.725 6.03379C125.115 5.61703 125.591 5.28931 126.121 5.0732C126.68 4.84661 127.278 4.7329 127.882 4.73868C128.642 4.73868 129.296 4.87311 129.842 5.14196C130.368 5.39485 130.833 5.75742 131.206 6.20502C131.573 6.65341 131.846 7.17045 132.009 7.72557C132.182 8.29881 132.269 8.89421 132.268 9.49271V21.0198C132.268 21.4548 132.346 21.758 132.501 21.9295C132.656 22.1007 132.966 22.1873 133.424 22.1873H136.049C136.417 22.1873 136.699 22.0811 136.895 21.8687C137.091 21.6562 137.189 21.3444 137.188 20.9332V17.3387C136.736 16.4938 136.378 15.6019 136.121 14.6791Z" fill="#002013"/>
<path d="M159.871 0.849638C159.783 0.717098 159.66 0.610488 159.517 0.540897C159.358 0.46342 159.19 0.408453 159.016 0.377606C158.834 0.343212 158.649 0.325729 158.464 0.325379H156.735C156.59 0.322425 156.445 0.337075 156.304 0.369011C156.195 0.394285 156.096 0.4511 156.019 0.532307C155.936 0.625363 155.872 0.733003 155.829 0.849638C155.766 1.01552 155.711 1.18455 155.665 1.35605L155.423 3.19327C155.016 2.72032 154.565 2.28629 154.077 1.89683C153.578 1.50088 153.037 1.1612 152.462 0.884013C151.864 0.598139 151.236 0.379505 150.589 0.232161C149.898 0.0745037 149.191 -0.00336169 148.483 0.000111228C147.47 -0.00314749 146.462 0.132561 145.487 0.40339C144.542 0.665815 143.634 1.04681 142.786 1.53719C141.107 2.50692 139.712 3.89447 138.736 5.56334C138.603 5.78613 138.483 6.01224 138.368 6.24429C138.049 6.8902 137.791 7.56437 137.598 8.25802C137.056 10.2252 137.056 12.301 137.598 14.2682C137.858 15.2049 138.238 16.1046 138.728 16.9456C138.732 16.9516 138.734 16.9575 138.738 16.9642C139.225 17.7967 139.817 18.5641 140.5 19.2476C141.181 19.9319 141.951 20.5237 142.788 21.0075C143.636 21.4982 144.544 21.879 145.489 22.1406C146.464 22.4115 147.472 22.5472 148.485 22.5439C149.141 22.5451 149.795 22.4733 150.436 22.3297C151.053 22.1916 151.655 21.9902 152.23 21.7288C152.785 21.4765 153.314 21.1716 153.81 20.8184C154.286 20.4808 154.734 20.1049 155.148 19.6945L155.252 21.1543C155.307 21.4194 155.416 21.6707 155.571 21.8927C155.716 22.0871 155.97 22.1849 156.34 22.1849H158.498C158.685 22.1856 158.873 22.171 159.059 22.1413C159.225 22.1171 159.385 22.065 159.534 21.9873C159.683 21.9107 159.806 21.7927 159.888 21.6478C159.971 21.5028 160.01 21.3371 159.999 21.1708V1.34018C160.006 1.16769 159.961 0.997114 159.871 0.849638ZM154.596 13.8649C154.263 14.6646 153.783 15.3955 153.181 16.0201C152.578 16.6408 151.86 17.1394 151.066 17.4884C150.242 17.8513 149.351 18.0356 148.45 18.0292C147.571 18.0381 146.702 17.8534 145.903 17.4884C145.137 17.1354 144.448 16.6366 143.875 16.0201C143.293 15.3927 142.836 14.6614 142.529 13.8649C141.884 12.1959 141.884 10.3488 142.529 8.67981C142.836 7.88335 143.293 7.15207 143.875 6.5246C144.449 5.90733 145.138 5.40589 145.903 5.04767C146.7 4.67711 147.571 4.48937 148.45 4.4983C149.352 4.49185 150.244 4.67925 151.066 5.04767C151.859 5.40197 152.577 5.90321 153.181 6.5246C153.783 7.1493 154.263 7.88018 154.596 8.67981C155.287 10.34 155.287 12.2047 154.596 13.8649Z" fill="#002013"/>
<path d="M99.975 13.1177H77.5022C77.3395 13.1177 77.1834 13.0534 77.0684 12.9389C76.9533 12.8245 76.8887 12.6693 76.8887 12.5075V9.62437C76.8887 9.46253 76.9533 9.30733 77.0684 9.19289C77.1834 9.07845 77.3395 9.01416 77.5022 9.01416H99.975V13.1177Z" fill="#002013"/>
<path d="M28.3954 27.9565C28.3939 27.9238 28.3995 27.8911 28.4119 27.8608C28.4243 27.8304 28.4432 27.8031 28.4672 27.7807C28.5171 27.7357 28.5827 27.712 28.65 27.7145H34.4657C34.5307 27.7142 34.594 27.7356 34.6452 27.7754C34.6727 27.7972 34.6951 27.8247 34.7108 27.8559C34.7266 27.8872 34.7352 27.9215 34.7363 27.9565V28.9184C34.7382 28.9886 34.7146 29.0572 34.6698 29.1115C34.645 29.1393 34.6141 29.1611 34.5796 29.1753C34.545 29.1895 34.5077 29.1957 34.4704 29.1934H32.3698V35.6267C32.3706 35.6915 32.3468 35.7543 32.3033 35.8025C32.2792 35.8285 32.2495 35.8488 32.2166 35.8621C32.1836 35.8753 32.1481 35.8812 32.1126 35.8792H31.0157C30.949 35.8787 30.885 35.8532 30.8363 35.8078C30.8103 35.7854 30.7897 35.7575 30.7758 35.7262C30.7619 35.6949 30.7551 35.6609 30.7558 35.6267V29.1934H28.65C28.6166 29.1951 28.5832 29.19 28.5519 29.1787C28.5205 29.1673 28.4917 29.1499 28.4672 29.1273C28.4416 29.0997 28.422 29.0671 28.4096 29.0316C28.3973 28.9962 28.3924 28.9585 28.3954 28.9211V27.9565Z" fill="#002013"/>
<path d="M37.6877 27.978C37.6877 27.8017 37.7688 27.7136 37.931 27.7136H43.2602C43.2983 27.7098 43.3367 27.7151 43.3723 27.729C43.4079 27.7429 43.4396 27.7651 43.4649 27.7936C43.5065 27.8513 43.528 27.9209 43.5261 27.9919V28.9631C43.527 29.0281 43.5033 29.0911 43.4596 29.1396C43.4327 29.1665 43.4002 29.1874 43.3644 29.2008C43.3286 29.2141 43.2903 29.2196 43.2522 29.2169H39.3176V30.8829H42.3468C42.378 30.8777 42.4099 30.8792 42.4404 30.8873C42.4709 30.8954 42.4993 30.9099 42.5237 30.9299C42.5483 30.9557 42.5669 30.9865 42.5784 31.0201C42.5899 31.0538 42.5939 31.0895 42.5901 31.1249V32.1199C42.5911 32.1828 42.5717 32.2444 42.535 32.2957C42.5145 32.3225 42.4875 32.3436 42.4566 32.3571C42.4257 32.3706 42.3918 32.3761 42.3581 32.3731H39.3176V34.369H43.3918C43.4948 34.369 43.5633 34.3908 43.5965 34.4351C43.6344 34.496 43.6519 34.5673 43.6464 34.6387V35.6436C43.6464 35.7974 43.5653 35.8745 43.4031 35.875H37.9297C37.8679 35.8767 37.8074 35.8573 37.7582 35.8201C37.733 35.7986 37.7134 35.7714 37.7009 35.7408C37.6884 35.7102 37.6834 35.6771 37.6864 35.6442L37.6877 27.978Z" fill="#002013"/>
<path d="M52.8035 28.3082C52.8458 28.3326 52.8832 28.3644 52.9139 28.4021C52.9436 28.4397 52.9591 28.4865 52.9577 28.5343C52.9569 28.5786 52.9457 28.622 52.9252 28.6613L52.3887 29.5683C52.368 29.6036 52.3391 29.6335 52.3044 29.6555C52.2697 29.6775 52.2303 29.6909 52.1893 29.6946C52.163 29.6939 52.137 29.6892 52.1122 29.6807C52.0809 29.6712 52.0512 29.6574 52.0238 29.6397C51.795 29.4762 51.5435 29.3466 51.2773 29.2549C51.0052 29.162 50.7194 29.1156 50.4317 29.1174C50.0759 29.1133 49.7234 29.1855 49.3981 29.329C49.0916 29.4652 48.8153 29.6605 48.5851 29.9035C48.354 30.1506 48.1733 30.44 48.0533 30.7557C47.9243 31.0909 47.8596 31.4472 47.8625 31.8062C47.8597 32.1623 47.9245 32.5158 48.0533 32.8481C48.1738 33.1627 48.3544 33.4512 48.5851 33.6976C48.8218 33.9478 49.1081 34.1464 49.426 34.2808C49.7439 34.4152 50.0864 34.4825 50.4317 34.4784C50.7221 34.4794 51.0107 34.433 51.2859 34.3409C51.5537 34.2506 51.8063 34.1206 52.0351 33.9554C52.0621 33.9347 52.0931 33.9199 52.1262 33.9118C52.1574 33.9045 52.184 33.8992 52.2059 33.8953C52.2453 33.8998 52.2832 33.913 52.3167 33.9339C52.3503 33.9548 52.3788 33.983 52.4 34.0162L52.9471 34.9345C52.9674 34.9718 52.9788 35.0132 52.9803 35.0555C52.9819 35.1021 52.9649 35.1475 52.9331 35.1818C52.9003 35.2162 52.8643 35.2474 52.8254 35.275C52.4799 35.5058 52.1029 35.6863 51.706 35.8112C51.2975 35.9391 50.8714 36.0031 50.443 36.0009C50.0631 36.0021 49.6848 35.9523 49.3183 35.8528C48.9647 35.7564 48.6254 35.6139 48.3092 35.429C47.6846 35.0635 47.1636 34.5462 46.795 33.9257C46.6089 33.6123 46.4656 33.2757 46.3689 32.9248C46.2189 32.3831 46.1793 31.817 46.2525 31.2599C46.3257 30.7028 46.5101 30.1659 46.795 29.6807C46.9777 29.3691 47.1995 29.0819 47.4551 28.8259C47.7098 28.5708 47.997 28.3499 48.3092 28.1687C48.6262 27.9857 48.9653 27.8436 49.3183 27.7456C50.097 27.5331 50.9203 27.5445 51.6927 27.7787C52.0866 27.9014 52.4607 28.0797 52.8035 28.3082Z" fill="#002013"/>
<path d="M56.1191 27.9561C56.1197 27.8939 56.1434 27.8341 56.1856 27.7882C56.207 27.7636 56.2337 27.7441 56.2638 27.7313C56.2939 27.7185 56.3264 27.7126 56.3591 27.7141H57.4606C57.5264 27.7153 57.5894 27.7408 57.6374 27.7855C57.6631 27.806 57.6839 27.8319 57.6982 27.8614C57.7124 27.891 57.7198 27.9233 57.7198 27.9561V30.8041H61.4291V27.9561C61.4282 27.8928 61.452 27.8317 61.4955 27.7855C61.518 27.7617 61.5454 27.743 61.5758 27.7307C61.6062 27.7183 61.6389 27.7127 61.6717 27.7141H62.7572C62.8264 27.7135 62.8936 27.7368 62.9473 27.7802C62.9734 27.8008 62.9943 27.8272 63.0081 27.8573C63.022 27.8874 63.0285 27.9203 63.0271 27.9534V35.6395C63.0271 35.8008 62.9407 35.8814 62.7678 35.8814H61.6717C61.5099 35.8814 61.4291 35.8008 61.4291 35.6395V32.3134H57.7198V35.6395C57.7198 35.8008 57.6299 35.8814 57.4499 35.8814H56.3591C56.2009 35.8814 56.1218 35.8067 56.1218 35.656L56.1191 27.9561Z" fill="#002013"/>
<path d="M66.4796 27.9615C66.4785 27.8966 66.5023 27.8338 66.546 27.7857C66.5688 27.7614 66.5968 27.7424 66.6278 27.73C66.6588 27.7177 66.6922 27.7123 66.7255 27.7143H67.9972C68.0483 27.7141 68.0987 27.7264 68.1441 27.75C68.1939 27.7774 68.2365 27.8161 68.2684 27.863C68.8985 28.7577 69.5232 29.6456 70.1423 30.5266C70.7614 31.4077 71.386 32.2955 72.0162 33.1902V27.9232C72.0242 27.8635 72.0537 27.8088 72.0993 27.7691C72.1443 27.7324 72.2012 27.7129 72.2595 27.7143H73.323C73.3926 27.7126 73.4603 27.7361 73.5138 27.7804C73.5401 27.8014 73.5611 27.8283 73.575 27.8588C73.589 27.8893 73.5956 27.9227 73.5942 27.9562V35.6515C73.5942 35.8023 73.5078 35.877 73.3343 35.877H72.1378C72.0567 35.877 71.9816 35.8274 71.9111 35.7289C71.2624 34.7941 70.6165 33.8601 69.9734 32.9271C69.3304 31.9941 68.6865 31.0586 68.0417 30.1207V35.635C68.0469 35.7009 68.0259 35.7661 67.9832 35.8168C67.9558 35.8397 67.9239 35.8568 67.8897 35.8671C67.8554 35.8775 67.8194 35.8808 67.7838 35.877H66.7202C66.6865 35.8795 66.6526 35.8749 66.6207 35.8635C66.5889 35.8521 66.5598 35.8342 66.5354 35.8109C66.4944 35.7626 66.4735 35.7007 66.4769 35.6376L66.4796 27.9615Z" fill="#002013"/>
<path d="M76.711 31.8051C76.7091 31.0592 76.9076 30.3263 77.2859 29.6823C77.4697 29.3719 77.6916 29.0857 77.9467 28.8301C78.2012 28.5749 78.4884 28.3541 78.8009 28.1736C79.1178 27.9904 79.4569 27.848 79.81 27.7498C80.5444 27.5489 81.3197 27.5489 82.0541 27.7498C82.4072 27.848 82.7462 27.9904 83.0632 28.1736C83.6915 28.5378 84.2143 29.0575 84.5808 29.6823C84.7649 29.9984 84.9079 30.3365 85.0062 30.6885C85.1088 31.0543 85.16 31.4325 85.1584 31.8124C85.1601 32.1896 85.1089 32.5652 85.0062 32.9283C84.9074 33.2784 84.7644 33.6147 84.5808 33.9292C84.3988 34.2399 84.1767 34.5256 83.92 34.7788C83.3884 35.3003 82.7285 35.674 82.0063 35.8626C81.284 36.0512 80.5247 36.0482 79.804 35.8537C78.7442 35.5608 77.8404 34.8698 77.2833 33.9266C76.9062 33.2833 76.7086 32.5516 76.711 31.8071V31.8051ZM78.3063 31.7938C78.303 32.15 78.3708 32.5032 78.5057 32.8331C78.6342 33.1461 78.822 33.4316 79.0588 33.674C79.2958 33.9146 79.5776 34.107 79.8884 34.2406C80.2154 34.3785 80.5669 34.4495 80.9221 34.4495C81.2772 34.4495 81.6287 34.3785 81.9557 34.2406C82.2669 34.1063 82.5494 33.914 82.788 33.674C83.0261 33.4322 83.2146 33.1466 83.343 32.8331C83.6122 32.1679 83.6122 31.425 83.343 30.7599C83.085 30.1261 82.5867 29.6186 81.9557 29.3471C81.6287 29.2092 81.2772 29.1382 80.9221 29.1382C80.5669 29.1382 80.2154 29.2092 79.8884 29.3471C79.5772 29.4812 79.2954 29.6746 79.0588 29.9163C78.5707 30.4203 78.2999 31.0941 78.3043 31.7938H78.3063Z" fill="#002013"/>
<path d="M88.2774 27.9563C88.2765 27.893 88.3003 27.8319 88.3438 27.7858C88.3681 27.7612 88.3974 27.7421 88.4297 27.7297C88.4621 27.7174 88.4967 27.7122 88.5313 27.7143H89.6274C89.6915 27.7142 89.7534 27.7377 89.8009 27.7805C89.8261 27.8027 89.8459 27.8303 89.8588 27.8612C89.8717 27.8921 89.8774 27.9255 89.8754 27.959V34.3757H93.336C93.3676 34.3749 93.399 34.3803 93.4284 34.3916C93.4579 34.403 93.4847 34.42 93.5075 34.4418C93.5317 34.4659 93.5506 34.4947 93.5629 34.5265C93.5753 34.5583 93.5809 34.5922 93.5793 34.6262V35.6324C93.5802 35.6965 93.5564 35.7585 93.5128 35.8057C93.4907 35.8302 93.4634 35.8497 93.4328 35.8625C93.4022 35.8753 93.3692 35.8812 93.336 35.8797H88.52C88.3582 35.8797 88.2774 35.799 88.2774 35.6377V27.9563Z" fill="#002013"/>
<path d="M96.0274 31.8051C96.0255 31.0592 96.224 30.3263 96.6024 29.6823C96.7861 29.3719 97.008 29.0857 97.2631 28.8301C97.5176 28.5749 97.8048 28.3541 98.1173 28.1736C98.4342 27.9904 98.7733 27.848 99.1264 27.7498C99.8608 27.5489 100.636 27.5489 101.371 27.7498C101.724 27.848 102.063 27.9904 102.38 28.1736C102.693 28.3546 102.981 28.5753 103.236 28.8301C103.492 29.0848 103.715 29.3712 103.897 29.6823C104.081 29.9984 104.224 30.3365 104.323 30.6885C104.425 31.0543 104.476 31.4325 104.475 31.8124C104.476 32.1896 104.425 32.5652 104.323 32.9283C104.224 33.2784 104.081 33.6147 103.897 33.9292C103.715 34.2398 103.493 34.5254 103.236 34.7788C102.705 35.3003 102.045 35.674 101.323 35.8626C100.6 36.0512 99.8411 36.0482 99.1204 35.8537C98.2295 35.6106 97.4439 35.0826 96.8849 34.3512C96.3259 33.6199 96.0245 32.7258 96.0274 31.8071V31.8051ZM97.6227 31.7938C97.6194 32.15 97.6872 32.5032 97.8222 32.8331C97.9506 33.1461 98.1384 33.4316 98.3752 33.674C98.6121 33.9144 98.8936 34.1068 99.2041 34.2406C99.5312 34.3785 99.8829 34.4495 100.238 34.4495C100.593 34.4495 100.945 34.3785 101.272 34.2406C101.583 34.1065 101.866 33.9142 102.104 33.674C102.342 33.4324 102.531 33.1467 102.659 32.8331C102.929 32.1679 102.929 31.425 102.659 30.7599C102.401 30.1264 101.903 29.6191 101.272 29.3471C100.945 29.2092 100.593 29.1381 100.238 29.1381C99.8829 29.1381 99.5312 29.2092 99.2041 29.3471C98.8932 29.4813 98.6116 29.6747 98.3752 29.9163C97.8871 30.4203 97.6163 31.0941 97.6207 31.7938H97.6227Z" fill="#002013"/>
<path d="M112.689 32.4651C112.686 32.4007 112.708 32.3375 112.751 32.2886C112.775 32.2654 112.803 32.2475 112.835 32.2361C112.866 32.2247 112.899 32.2201 112.933 32.2225H113.834C113.899 32.2235 113.962 32.2469 114.011 32.2886C114.038 32.3095 114.059 32.3363 114.074 32.367C114.088 32.3977 114.095 32.4313 114.094 32.4651V34.9906C114.094 35.0348 114.082 35.0782 114.061 35.1169C114.031 35.1649 113.989 35.2046 113.939 35.2325C113.935 35.2325 113.933 35.2325 113.933 35.2325C113.933 35.2325 113.933 35.2325 113.928 35.2325C113.751 35.3558 113.564 35.4644 113.37 35.5571C113.168 35.6534 112.959 35.7335 112.745 35.7965C112.525 35.8608 112.302 35.9103 112.076 35.9446C111.849 35.9794 111.62 35.9968 111.391 35.9968C111.012 35.9977 110.634 35.9479 110.269 35.8487C109.915 35.753 109.575 35.6105 109.259 35.4249C108.636 35.0581 108.116 34.541 107.747 33.9216C107.561 33.6082 107.418 33.2716 107.322 32.9206C107.172 32.3804 107.133 31.8158 107.206 31.2601C107.279 30.7045 107.463 30.169 107.747 29.6852C107.931 29.3748 108.153 29.0885 108.408 28.833C108.663 28.5769 108.95 28.3547 109.262 28.1719C109.579 27.9873 109.918 27.844 110.271 27.7455C110.637 27.644 111.016 27.5933 111.396 27.5948C111.658 27.594 111.92 27.6162 112.178 27.6609C112.436 27.7065 112.688 27.7755 112.933 27.8671C113.025 27.9042 113.135 27.95 113.262 28.0046C113.386 28.0582 113.507 28.1189 113.624 28.1864C113.727 28.2445 113.824 28.3125 113.914 28.3894C113.947 28.413 113.975 28.4433 113.996 28.4785C114.016 28.5136 114.029 28.5526 114.033 28.593C114.026 28.6427 114.009 28.6904 113.983 28.7332C113.95 28.7993 113.909 28.87 113.859 28.9507C113.809 29.0313 113.753 29.1146 113.69 29.2006C113.627 29.2865 113.567 29.3645 113.508 29.434C113.449 29.5034 113.395 29.5616 113.348 29.6078C113.319 29.6414 113.28 29.6647 113.237 29.6739C113.21 29.6734 113.183 29.669 113.157 29.6607C113.121 29.6495 113.089 29.6317 113.06 29.6085C112.818 29.4427 112.554 29.313 112.275 29.2237C111.988 29.1287 111.688 29.0802 111.385 29.0803C111.025 29.0761 110.667 29.1463 110.336 29.2864C110.004 29.4264 109.705 29.6334 109.458 29.8941C108.973 30.4101 108.704 31.0905 108.706 31.7968C108.703 32.1584 108.776 32.5166 108.918 32.8492C109.054 33.169 109.249 33.4605 109.493 33.7087C109.737 33.9532 110.025 34.1492 110.342 34.2858C110.668 34.4271 111.02 34.4992 111.376 34.4974C111.511 34.4976 111.646 34.4874 111.779 34.467C111.905 34.4485 112.03 34.4229 112.152 34.3903C112.259 34.3625 112.363 34.3276 112.465 34.2858C112.543 34.2544 112.619 34.2165 112.691 34.1728L112.689 32.4651Z" fill="#002013"/>
<path d="M117.473 27.9564C117.471 27.8941 117.493 27.8335 117.533 27.7859C117.556 27.7612 117.584 27.7419 117.616 27.7295C117.647 27.7172 117.681 27.712 117.715 27.7145H118.812C118.876 27.7152 118.939 27.7386 118.988 27.7806C119.014 27.8013 119.036 27.828 119.05 27.8586C119.065 27.8892 119.071 27.9227 119.07 27.9564V35.6372C119.07 35.7985 118.984 35.8791 118.812 35.8791H117.715C117.553 35.8791 117.472 35.7985 117.473 35.6372V27.9564Z" fill="#002013"/>
<path d="M122.525 27.978C122.525 27.8017 122.606 27.7135 122.769 27.7135H128.098C128.136 27.7098 128.174 27.7152 128.21 27.7291C128.245 27.743 128.277 27.7651 128.303 27.7935C128.344 27.8513 128.365 27.921 128.363 27.9919V28.963C128.364 29.0281 128.341 29.0913 128.297 29.1396C128.27 29.1666 128.238 29.1876 128.202 29.201C128.166 29.2143 128.128 29.2198 128.09 29.2169H124.159V30.8829H127.189C127.22 30.8777 127.252 30.8792 127.282 30.8873C127.313 30.8954 127.341 30.9099 127.365 30.9298C127.39 30.9556 127.409 30.9864 127.42 31.0201C127.432 31.0538 127.436 31.0895 127.432 31.1249V32.1198C127.433 32.1828 127.413 32.2444 127.377 32.2957C127.356 32.3222 127.329 32.3431 127.298 32.3566C127.267 32.3702 127.233 32.3758 127.2 32.373H124.159V34.3689H128.233C128.337 34.3689 128.405 34.3907 128.438 34.435C128.475 34.496 128.493 34.5672 128.487 34.6387V35.6435C128.487 35.7974 128.406 35.8745 128.244 35.8749H122.771C122.71 35.8767 122.649 35.8573 122.6 35.8201C122.575 35.7985 122.555 35.7714 122.543 35.7408C122.53 35.7102 122.525 35.6771 122.528 35.6442L122.525 27.978Z" fill="#002013"/>
<path d="M136.136 29.8913C136.089 29.892 136.043 29.8797 136.003 29.8556C135.955 29.8267 135.909 29.7947 135.865 29.7597L135.854 29.7544C135.769 29.6715 135.678 29.5942 135.583 29.523C135.466 29.435 135.342 29.3561 135.213 29.287C135.072 29.212 134.925 29.1494 134.773 29.0999C134.619 29.0489 134.457 29.023 134.295 29.0232C134.11 29.0196 133.926 29.0419 133.748 29.0893C133.605 29.1279 133.47 29.1912 133.349 29.2764C133.247 29.3491 133.164 29.4441 133.106 29.5541C133.051 29.6595 133.022 29.7765 133.023 29.8952C133.021 30.0218 133.065 30.1449 133.147 30.2417C133.242 30.35 133.356 30.4396 133.485 30.5061C133.642 30.5897 133.805 30.6604 133.974 30.7176C134.158 30.7816 134.352 30.8448 134.554 30.9074C134.786 30.977 135.017 31.0522 135.245 31.1328C135.468 31.2112 135.687 31.3021 135.9 31.4052C136.103 31.5023 136.297 31.6144 136.483 31.7404C136.658 31.8585 136.814 32.001 136.948 32.1635C137.08 32.3239 137.184 32.504 137.258 32.697C137.336 32.9087 137.374 33.1327 137.371 33.3581C137.377 33.7333 137.293 34.1045 137.128 34.4417C136.967 34.7626 136.738 35.0449 136.457 35.2687C136.157 35.5056 135.816 35.685 135.45 35.7976C135.049 35.9225 134.63 35.9845 134.209 35.9814C133.924 35.9812 133.641 35.9481 133.364 35.8829C133.085 35.8174 132.815 35.7233 132.557 35.6019C132.299 35.481 132.054 35.3346 131.825 35.1649C131.598 34.9977 131.391 34.8049 131.208 34.5904V34.5957L131.198 34.5739C131.128 34.5072 131.085 34.4174 131.076 34.3214C131.076 34.2804 131.088 34.2403 131.109 34.2057C131.138 34.1617 131.171 34.1211 131.208 34.0847L131.391 33.9035C131.446 33.8559 131.506 33.8024 131.568 33.7435C131.628 33.6872 131.691 33.6341 131.756 33.5842C131.819 33.5366 131.877 33.4963 131.93 33.4632C131.969 33.435 132.015 33.4179 132.063 33.4137C132.115 33.4137 132.166 33.4312 132.207 33.4632C132.246 33.4918 132.283 33.5232 132.318 33.5571L132.34 33.5789H132.335C132.47 33.705 132.615 33.8208 132.768 33.9253C132.926 34.034 133.092 34.1322 133.263 34.2195C133.425 34.3027 133.594 34.3708 133.769 34.4232C133.922 34.4701 134.081 34.495 134.242 34.4972C134.434 34.4986 134.626 34.4726 134.811 34.4199C134.975 34.3746 135.131 34.3013 135.27 34.203C135.394 34.1141 135.497 33.9993 135.572 33.8665C135.647 33.7319 135.685 33.5804 135.683 33.4269C135.686 33.2759 135.635 33.1286 135.539 33.0117C135.434 32.8886 135.307 32.7862 135.164 32.7096C134.997 32.6182 134.822 32.5436 134.641 32.4868C134.448 32.4246 134.253 32.366 134.058 32.3109C133.654 32.1926 133.26 32.0456 132.878 31.8713C132.573 31.7349 132.289 31.5569 132.034 31.3424C131.82 31.1603 131.648 30.9349 131.529 30.6813C131.413 30.4229 131.355 30.1424 131.36 29.8595C131.355 29.5414 131.424 29.2264 131.563 28.9395C131.701 28.6526 131.905 28.4017 132.158 28.2068C132.432 27.9968 132.744 27.8386 133.076 27.74C133.465 27.6236 133.869 27.567 134.276 27.5721C134.622 27.5738 134.967 27.6266 135.298 27.7288C135.636 27.8297 135.96 27.9748 136.26 28.1605C136.348 28.2151 136.439 28.2775 136.531 28.3476C136.623 28.4137 136.708 28.4877 136.785 28.5591C136.855 28.6224 136.919 28.6924 136.976 28.768C137.015 28.8079 137.041 28.8595 137.049 28.9151C137.056 28.9707 137.045 29.0272 137.018 29.0761C136.996 29.1209 136.968 29.1625 136.934 29.1997L136.768 29.3756V29.371L136.597 29.5528C136.542 29.612 136.482 29.6681 136.42 29.7207C136.361 29.7696 136.308 29.8113 136.26 29.8443C136.224 29.8719 136.181 29.8882 136.136 29.8913Z" fill="#002013"/>
</g>
<defs>
<clipPath id="clip0_156_8417">
<rect width="160" height="36" fill="white"/>
</clipPath>
</defs>
</svg>
