<svg width="48" height="48" viewBox="0 0 48 48" fill="none" xmlns="http://www.w3.org/2000/svg">
<path d="M41.1955 22.0088C41.1157 21.6521 40.9502 21.3203 40.7133 21.0419C40.4765 20.7636 40.1754 20.5471 39.8361 20.4113L30.2399 16.5732L32.2255 3.33378C32.2984 2.85836 32.217 2.3721 31.9933 1.94632C31.7696 1.52054 31.4154 1.17765 30.9825 0.967938C30.5497 0.758228 30.061 0.692738 29.5882 0.781074C29.1154 0.869411 28.6834 1.10692 28.3555 1.45878L7.35549 23.9588C7.10587 24.2261 6.92518 24.5503 6.82907 24.9031C6.73296 25.256 6.72433 25.6271 6.80393 25.984C6.88352 26.341 7.04895 26.6732 7.28587 26.9519C7.52279 27.2305 7.82407 27.4472 8.16361 27.5832L17.7599 31.4213L15.7742 44.6663C15.7014 45.1417 15.7827 45.6279 16.0064 46.0537C16.2301 46.4795 16.5844 46.8224 17.0172 47.0321C17.4501 47.2418 17.9387 47.3073 18.4115 47.219C18.8843 47.1306 19.3163 46.8931 19.6442 46.5413L40.6442 24.0413C40.8949 23.7732 41.0762 23.4478 41.1723 23.0935C41.2684 22.7392 41.2764 22.3668 41.1955 22.0088ZM21.2999 38.1657L22.4755 30.3338C22.5506 29.8325 22.4543 29.3206 22.2021 28.8809C21.9499 28.4412 21.5567 28.0996 21.0861 27.9113L12.8886 24.6319L26.6999 9.8344L25.5242 17.6663C25.4491 18.1675 25.5454 18.6795 25.7976 19.1192C26.0498 19.5588 26.443 19.9005 26.9136 20.0888L35.1111 23.3682L21.2999 38.1657Z" fill="#1FFFA5"/>
</svg>
