<svg width="36" height="36" viewBox="0 0 36 36" fill="none" xmlns="http://www.w3.org/2000/svg">
<path d="M28.627 7.17184C26.4945 5.07396 23.7895 3.65323 20.8519 3.0882C17.9144 2.52317 14.8753 2.83906 12.1167 3.99617C9.35816 5.15327 7.00315 7.09997 5.34771 9.59158C3.69226 12.0832 2.81024 15.0085 2.8125 18C2.8125 24.2887 6.69375 29.5664 12.9375 31.7728C13.7011 32.0427 14.5183 32.1256 15.3205 32.0143C16.1227 31.9031 16.8865 31.601 17.5478 31.1334C18.2091 30.6658 18.7485 30.0464 19.1208 29.3272C19.4931 28.6079 19.6875 27.8099 19.6875 27C19.6875 26.5524 19.8653 26.1232 20.1818 25.8067C20.4982 25.4903 20.9275 25.3125 21.375 25.3125H27.8733C29.0218 25.3179 30.1376 24.9303 31.0355 24.214C31.9334 23.4978 32.5592 22.496 32.8092 21.375C33.07 20.2258 33.197 19.0503 33.1875 17.872C33.1736 15.8753 32.7634 13.9013 31.9805 12.0645C31.1976 10.2277 30.0578 8.56463 28.627 7.17184ZM29.5186 20.6254C29.4348 20.9985 29.2259 21.3316 28.9266 21.5696C28.6273 21.8075 28.2556 21.9358 27.8733 21.9333H21.375C20.0323 21.9333 18.7447 22.4666 17.7953 23.416C16.8459 24.3654 16.3125 25.6531 16.3125 26.9958C16.3122 27.2656 16.2472 27.5314 16.123 27.7709C15.9987 28.0104 15.8189 28.2166 15.5985 28.3722C15.3781 28.5279 15.1236 28.6284 14.8564 28.6654C14.5891 28.7024 14.3169 28.6748 14.0625 28.5848C11.7211 27.7579 9.75235 26.3686 8.37 24.5686C6.934 22.6818 6.16621 20.371 6.1875 18C6.18734 14.8882 7.41506 11.902 9.60394 9.69023C11.7928 7.47844 14.766 6.2197 17.8777 6.18747H18C21.1117 6.20014 24.0939 7.43508 26.3035 9.62607C28.5132 11.8171 29.7734 14.7886 29.8125 17.9001C29.8201 18.8187 29.7215 19.7351 29.5186 20.6311V20.6254ZM20.25 10.6875C20.25 11.1325 20.118 11.5675 19.8708 11.9375C19.6236 12.3075 19.2722 12.5959 18.861 12.7662C18.4499 12.9365 17.9975 12.9811 17.561 12.8942C17.1246 12.8074 16.7237 12.5931 16.409 12.2785C16.0943 11.9638 15.8801 11.5629 15.7932 11.1264C15.7064 10.69 15.751 10.2376 15.9213 9.82643C16.0916 9.4153 16.38 9.0639 16.75 8.81666C17.12 8.56943 17.555 8.43747 18 8.43747C18.5967 8.43747 19.169 8.67452 19.591 9.09648C20.0129 9.51844 20.25 10.0907 20.25 10.6875ZM14.0625 14.0625C14.0625 14.5075 13.9305 14.9425 13.6833 15.3125C13.4361 15.6825 13.0847 15.9709 12.6735 16.1412C12.2624 16.3115 11.81 16.3561 11.3736 16.2692C10.9371 16.1824 10.5362 15.9681 10.2215 15.6535C9.90685 15.3388 9.69255 14.9379 9.60574 14.5014C9.51892 14.065 9.56348 13.6126 9.73377 13.2014C9.90407 12.7903 10.1925 12.4389 10.5625 12.1917C10.9325 11.9444 11.3675 11.8125 11.8125 11.8125C12.4092 11.8125 12.9815 12.0495 13.4035 12.4715C13.8254 12.8934 14.0625 13.4657 14.0625 14.0625ZM14.0625 21.9375C14.0625 22.3825 13.9305 22.8175 13.6833 23.1875C13.4361 23.5575 13.0847 23.8459 12.6735 24.0162C12.2624 24.1865 11.81 24.2311 11.3736 24.1442C10.9371 24.0574 10.5362 23.8431 10.2215 23.5285C9.90685 23.2138 9.69255 22.8129 9.60574 22.3764C9.51892 21.94 9.56348 21.4876 9.73377 21.0764C9.90407 20.6653 10.1925 20.3139 10.5625 20.0667C10.9325 19.8194 11.3675 19.6875 11.8125 19.6875C12.4092 19.6875 12.9815 19.9245 13.4035 20.3465C13.8254 20.7684 14.0625 21.3407 14.0625 21.9375ZM26.4375 14.0625C26.4375 14.5075 26.3055 14.9425 26.0583 15.3125C25.8111 15.6825 25.4597 15.9709 25.0485 16.1412C24.6374 16.3115 24.185 16.3561 23.7485 16.2692C23.3121 16.1824 22.9112 15.9681 22.5965 15.6535C22.2818 15.3388 22.0676 14.9379 21.9807 14.5014C21.8939 14.065 21.9385 13.6126 22.1088 13.2014C22.2791 12.7903 22.5675 12.4389 22.9375 12.1917C23.3075 11.9444 23.7425 11.8125 24.1875 11.8125C24.7842 11.8125 25.3565 12.0495 25.7785 12.4715C26.2004 12.8934 26.4375 13.4657 26.4375 14.0625Z" fill="#1FFFA5"/>
</svg>
