<svg width="17" height="16" viewBox="0 0 17 16" fill="none" xmlns="http://www.w3.org/2000/svg">
<path d="M14.334 9.67497L11.3909 8.3556L11.3796 8.35059C11.1883 8.26812 10.9794 8.23492 10.7719 8.25403C10.5645 8.27313 10.3651 8.34394 10.1921 8.45997C10.1679 8.47621 10.1445 8.49373 10.1221 8.51247L8.72774 9.69997C7.91524 9.25934 7.07586 8.42684 6.63461 7.62434L7.82586 6.2081C7.84501 6.18524 7.86276 6.16123 7.87899 6.13622C7.99198 5.96382 8.06058 5.76615 8.07868 5.56081C8.09678 5.35548 8.06382 5.14886 7.98274 4.95934C7.98081 4.95571 7.97914 4.95196 7.97774 4.94809L6.65899 1.99997C6.55074 1.75342 6.36599 1.54827 6.13209 1.41489C5.89818 1.2815 5.62755 1.22696 5.36024 1.25934C4.45297 1.37853 3.62011 1.82389 3.0172 2.51225C2.41429 3.20062 2.08257 4.08491 2.08399 4.99997C2.08399 10.1006 6.23336 14.25 11.334 14.25C12.2491 14.2514 13.1333 13.9197 13.8217 13.3168C14.5101 12.7139 14.9554 11.881 15.0746 10.9737C15.107 10.7064 15.0525 10.4358 14.9191 10.2019C14.7857 9.96797 14.5805 9.78322 14.334 9.67497ZM11.334 12.75C9.27932 12.7475 7.30952 11.9302 5.85665 10.4773C4.40378 9.02444 3.58647 7.05464 3.58399 4.99997C3.58256 4.48215 3.75835 3.97944 4.08216 3.57536C4.40598 3.17127 4.8583 2.89016 5.36399 2.77872L6.54024 5.40372L5.34274 6.82997C5.32338 6.85304 5.30543 6.87725 5.28899 6.90247C5.17096 7.08282 5.10156 7.29062 5.08755 7.5057C5.07353 7.72078 5.11536 7.93583 5.20899 8.12997C5.79774 9.33497 7.01086 10.54 8.22836 11.13C8.4238 11.2226 8.63994 11.263 8.85564 11.2471C9.07134 11.2312 9.27923 11.1596 9.45899 11.0393C9.48316 11.023 9.50633 11.0053 9.52836 10.9862L10.9302 9.79434L13.5552 10.97C13.4438 11.4757 13.1627 11.928 12.7586 12.2518C12.3545 12.5756 11.8518 12.7514 11.334 12.75Z" fill="#1FFFA5"/>
</svg>
