<svg width="36" height="36" viewBox="0 0 36 36" fill="none" xmlns="http://www.w3.org/2000/svg">
<path d="M32.0421 6.59396C32.0001 5.90876 31.709 5.26257 31.2236 4.77715C30.7382 4.29173 30.092 4.00061 29.4068 3.95865C27.5604 3.85037 22.8466 4.01771 18.933 7.9299L18.4226 8.43755H10.4576C10.0881 8.43632 9.722 8.50853 9.38065 8.65C9.03929 8.79147 8.72946 8.99937 8.46914 9.26162L3.63867 14.0893C3.26888 14.4589 3.00944 14.9243 2.88948 15.4332C2.76952 15.9421 2.79379 16.4743 2.95957 16.9702C3.12535 17.4661 3.42606 17.9059 3.82796 18.2404C4.22986 18.5748 4.71703 18.7906 5.23477 18.8635L10.4576 19.5919L16.4088 25.5432L17.1387 30.7716C17.2098 31.2902 17.425 31.7783 17.7599 32.1806C18.0947 32.5829 18.5358 32.883 19.0329 33.0469C19.322 33.1416 19.6245 33.1891 19.9287 33.1876C20.2973 33.1873 20.6622 33.1143 21.0024 32.9726C21.3427 32.831 21.6516 32.6235 21.9115 32.3621L26.7405 27.5316C27.0024 27.2711 27.21 26.9612 27.3512 26.6199C27.4924 26.2785 27.5645 25.9126 27.5632 25.5432V17.5782L28.0695 17.0733C31.983 13.1541 32.1504 8.43755 32.0421 6.59396ZM10.6882 11.8126H15.0476L10.653 16.2113L6.82383 15.6769L10.6882 11.8126ZM21.3195 10.3177C22.2824 9.34684 23.4313 8.58026 24.6975 8.06389C25.9636 7.54752 27.321 7.29198 28.6882 7.31255C28.7096 8.68025 28.4543 10.0382 27.9376 11.3047C27.421 12.5712 26.6536 13.7202 25.6816 14.6827L18.0007 22.3594L13.6413 18.0001L21.3195 10.3177ZM24.1882 25.3126L20.3224 29.1783L19.788 25.3491L24.1882 20.9532V25.3126ZM14.0632 28.4063C12.8384 30.0727 10.3802 32.0626 5.62571 32.0626C5.17815 32.0626 4.74893 31.8848 4.43246 31.5683C4.116 31.2518 3.93821 30.8226 3.93821 30.3751C3.93821 25.6163 5.92383 23.1582 7.59446 21.9376C7.77121 21.7891 7.97655 21.6784 8.19778 21.6124C8.41901 21.5465 8.65142 21.5266 8.88063 21.5541C9.10984 21.5815 9.33099 21.6557 9.53038 21.772C9.72978 21.8884 9.90318 22.0444 10.0399 22.2304C10.1765 22.4165 10.2736 22.6286 10.325 22.8536C10.3765 23.0787 10.3812 23.3119 10.3389 23.5388C10.2966 23.7658 10.2081 23.9816 10.0791 24.173C9.95002 24.3644 9.78305 24.5273 9.58852 24.6516C8.76164 25.2605 7.8068 26.4094 7.45383 28.5469C9.59274 28.194 10.7402 27.2391 11.3491 26.4122C11.4734 26.2177 11.6363 26.0507 11.8277 25.9217C12.0191 25.7926 12.235 25.7042 12.4619 25.6619C12.6889 25.6196 12.9221 25.6243 13.1471 25.6757C13.3722 25.7271 13.5843 25.8242 13.7703 25.9609C13.9564 26.0976 14.1124 26.271 14.2287 26.4704C14.3451 26.6698 14.4192 26.8909 14.4467 27.1201C14.4741 27.3493 14.4543 27.5818 14.3883 27.803C14.3224 28.0242 14.2117 28.2296 14.0632 28.4063Z" fill="#1FFFA5"/>
</svg>
