<svg width="17" height="16" viewBox="0 0 17 16" fill="none" xmlns="http://www.w3.org/2000/svg">
<path d="M15.2092 6.15551C15.163 6.00984 15.0741 5.88138 14.9541 5.78677C14.8341 5.69217 14.6885 5.63577 14.536 5.62489L10.6942 5.31239L9.21416 1.72926C9.15587 1.58755 9.05678 1.46636 8.92948 1.38107C8.80217 1.29578 8.6524 1.25024 8.49916 1.25024C8.34593 1.25024 8.19615 1.29578 8.06885 1.38107C7.94154 1.46636 7.84245 1.58755 7.78416 1.72926L6.30416 5.31239L2.46229 5.62489C2.30961 5.63785 2.16416 5.69561 2.04418 5.7909C1.92419 5.8862 1.83501 6.0148 1.78782 6.16058C1.74063 6.30635 1.73753 6.46282 1.77891 6.61035C1.82028 6.75788 1.9043 6.88991 2.02041 6.98989L4.94854 9.51552L4.05354 13.2899C4.01605 13.4391 4.02402 13.5961 4.0764 13.7408C4.12879 13.8854 4.2232 14.0111 4.34754 14.1017C4.47187 14.1924 4.62044 14.2437 4.77419 14.2493C4.92794 14.2549 5.07984 14.2144 5.21041 14.133L8.49916 12.1105L11.7879 14.133C11.9171 14.2146 12.068 14.2553 12.2207 14.2496C12.3734 14.2439 12.5208 14.1921 12.6435 14.1011C12.7698 14.0118 12.866 13.8865 12.9198 13.7415C12.9736 13.5965 12.9823 13.4387 12.9448 13.2886L12.0498 9.51239L14.9779 6.98676C15.0953 6.8873 15.18 6.75488 15.2213 6.60668C15.2625 6.45847 15.2583 6.3013 15.2092 6.15551ZM14.651 6.60926L11.6085 9.23426C11.5739 9.26415 11.5481 9.30298 11.534 9.34651C11.5199 9.39004 11.518 9.43661 11.5285 9.48114L12.4579 13.4055C12.4715 13.4591 12.4686 13.5157 12.4494 13.5675C12.4302 13.6194 12.3957 13.6643 12.3504 13.6961C12.3074 13.7283 12.2555 13.7465 12.2019 13.7486C12.1482 13.7506 12.0951 13.7362 12.0498 13.7074L8.63041 11.6043C8.59096 11.5799 8.54552 11.567 8.49916 11.567C8.45281 11.567 8.40736 11.5799 8.36791 11.6043L4.94854 13.7074C4.90319 13.7362 4.85016 13.7506 4.79647 13.7486C4.74278 13.7465 4.69097 13.7283 4.64791 13.6961C4.60266 13.6643 4.56815 13.6194 4.54896 13.5675C4.52976 13.5157 4.52678 13.4591 4.54041 13.4055L5.46979 9.48114C5.48032 9.43661 5.47844 9.39004 5.46433 9.34651C5.45022 9.30298 5.42444 9.26415 5.38979 9.23426L2.34729 6.60926C2.30525 6.57383 2.27489 6.52654 2.26018 6.47357C2.24546 6.4206 2.24706 6.36443 2.26479 6.31239C2.28108 6.26085 2.31251 6.21541 2.35498 6.18197C2.39744 6.14853 2.44899 6.12864 2.50291 6.12489L6.49916 5.79926C6.54513 5.79561 6.58919 5.77932 6.62647 5.75218C6.66375 5.72505 6.6928 5.68813 6.71041 5.64551L8.24916 1.92051C8.26932 1.87002 8.30415 1.82673 8.34916 1.79623C8.39417 1.76574 8.44729 1.74944 8.50166 1.74944C8.55603 1.74944 8.60915 1.76574 8.65416 1.79623C8.69917 1.82673 8.73401 1.87002 8.75416 1.92051L10.2929 5.64551C10.3101 5.68743 10.3384 5.72387 10.3747 5.75095C10.4111 5.77804 10.4541 5.79473 10.4992 5.79926L14.4929 6.12114C14.5468 6.12489 14.5984 6.14478 14.6408 6.17822C14.6833 6.21166 14.7147 6.2571 14.731 6.30864C14.7499 6.36094 14.7523 6.41774 14.738 6.47146C14.7237 6.52517 14.6934 6.57325 14.651 6.60926Z" fill="#B3B3B3"/>
</svg>
